<svg width="14" height="9" viewBox="0 0 14 9" fill="none" xmlns="http://www.w3.org/2000/svg">
<path d="M2.86615 3.14158C3.74659 3.14158 4.46276 2.437 4.46276 1.57107C4.46276 0.704586 3.74659 0 2.86615 0C1.9857 0 1.26953 0.704586 1.26953 1.57079C1.26953 2.437 1.9857 3.14158 2.86615 3.14158ZM2.86615 0.56412C3.43037 0.56412 3.88937 1.01598 3.88937 1.57079C3.88937 2.1256 3.43037 2.57746 2.86615 2.57746C2.30193 2.57746 1.84293 2.12589 1.84293 1.57107C1.84293 1.01626 2.30193 0.56412 2.86615 0.56412Z" fill="#464646" style="fill:#464646;fill:color(display-p3 0.2745 0.2745 0.2745);fill-opacity:1;"/>
<path d="M0.286849 8.18248C0.353936 8.18248 0.421596 8.15936 0.476069 8.11225L5.15296 4.06131L8.10651 6.96681C8.21861 7.07709 8.3998 7.07709 8.5119 6.96681C8.624 6.85652 8.624 6.67826 8.5119 6.56798L7.13375 5.21211L9.76591 2.37629L12.9944 5.28799C13.1111 5.3932 13.2926 5.3853 13.3995 5.2705C13.5064 5.1557 13.4987 4.97716 13.3817 4.87195L9.94137 1.76929C9.88518 1.7188 9.81035 1.6937 9.73495 1.69539C9.65897 1.69878 9.5873 1.73178 9.53598 1.78706L6.72807 4.81272L5.36827 3.47491C5.26104 3.3697 5.0896 3.36434 4.97606 3.4625L0.097342 7.6886C-0.0216373 7.79155 -0.0331052 7.96981 0.0715392 8.08687C0.128305 8.15033 0.207434 8.18248 0.286849 8.18248Z" fill="#464646" style="fill:#464646;fill:color(display-p3 0.2745 0.2745 0.2745);fill-opacity:1;"/>
</svg>
